<svg width="237" height="321" viewBox="0 0 237 321" fill="none" xmlns="http://www.w3.org/2000/svg">
<path d="M236.842 45.8155C235.8 37.518 228.65 29.7794 220.129 29.7794C215.101 29.7794 210.325 32.3558 206.89 35.9552C205.67 37.1758 204.545 38.4834 203.522 39.8671C202.802 38.3136 201.963 36.8159 201.013 35.3868C198.369 31.1908 194.2 27.7335 189.269 26.7673C180.922 25.1287 172.363 31.3234 169.671 39.2609C166.978 47.1984 169.217 56.0925 173.646 63.2344C178.076 70.3763 185.689 79.7062 199.701 84.338C209.35 83.1161 222.339 74.6955 228.109 68.5482C233.88 62.4009 237.855 54.1034 236.842 45.8155Z" fill="#82AAE3"/>
<path d="M233.735 60.7054C233.642 60.7157 233.548 60.7157 233.455 60.7054L232.635 60.6485L229.479 60.3928L217.9 59.3509L218.112 59.2278C216.713 62.7987 215.082 66.9853 213.287 71.5413L212.998 72.2801L212.805 71.5034C211.328 65.5171 209.688 58.8015 207.98 51.726C207.449 49.5379 206.918 47.3783 206.407 45.2755L206.899 45.3703L198.06 57.3049L197.973 57.4186H197.828L177.487 55.3348L171.697 54.7096L170.172 54.5202C169.995 54.5108 169.82 54.479 169.651 54.4255C169.828 54.4087 170.006 54.4087 170.182 54.4255L171.707 54.5297L177.497 55.0222L197.857 56.9166L197.635 57.0113L206.436 45.0577L206.783 44.5746L206.918 45.1524C207.44 47.2552 207.961 49.4053 208.501 51.6028L213.326 71.3898H212.843C214.667 66.8148 216.337 62.6377 217.765 59.0762L217.813 58.9341H217.967L229.547 60.1465L232.683 60.5065L233.503 60.6107C233.584 60.6322 233.662 60.664 233.735 60.7054V60.7054Z" fill="#FAFAFA"/>
<path d="M27.2893 97.5987H20.9205V125.626H27.2893V97.5987Z" fill="#82AAE3"/>
<path d="M9.82339 108.482V114.734H38.3768V108.482H9.82339Z" fill="#82AAE3"/>
<path d="M47.8142 111.684C47.7904 111.558 47.7743 111.432 47.766 111.305C47.766 111.03 47.7178 110.661 47.6888 110.196C47.6888 109.95 47.6888 109.676 47.6309 109.382C47.573 109.088 47.5344 108.757 47.4765 108.435C47.3695 107.622 47.2018 106.818 46.9747 106.029C46.4158 103.851 45.5244 101.769 44.3307 99.8531C41.5181 95.2244 37.1476 91.7046 31.9736 89.901C26.7995 88.0974 21.1463 88.1232 15.9896 89.9738C14.9332 90.3448 13.9046 90.7879 12.9113 91.2999C11.9045 91.8429 10.9372 92.4537 10.0164 93.128C9.07688 93.8119 8.184 94.5555 7.34343 95.3539C6.51599 96.1971 5.74557 97.0926 5.03714 98.0345C3.57654 99.9667 2.43965 102.115 1.66941 104.4C0.0483762 109.135 0.0483762 114.261 1.66941 118.996C2.4375 121.281 3.57456 123.43 5.03714 125.361C5.74066 126.307 6.51135 127.203 7.34343 128.042C8.18141 128.846 9.07448 129.593 10.0164 130.277C10.9372 130.951 11.9045 131.562 12.9113 132.105C13.9065 132.613 14.9348 133.056 15.9896 133.431C21.1466 135.268 26.7937 135.287 31.9639 133.487C37.1341 131.686 41.5059 128.178 44.3307 123.561C45.5263 121.643 46.4179 119.558 46.9747 117.376C47.2026 116.591 47.3704 115.79 47.4765 114.98C47.5344 114.62 47.602 114.298 47.6309 114.033C47.6599 113.767 47.6309 113.464 47.6888 113.218C47.6888 112.744 47.7467 112.384 47.766 112.11C47.7734 111.983 47.7895 111.856 47.8142 111.731C47.8251 111.857 47.8251 111.984 47.8142 112.11C47.8142 112.384 47.8142 112.754 47.8142 113.218V114.042C47.8142 114.345 47.7274 114.667 47.6888 114.989C47.5928 115.807 47.438 116.618 47.2256 117.414C46.6914 119.625 45.816 121.743 44.6298 123.694C42.8897 126.577 40.5424 129.062 37.745 130.983C34.9476 132.904 31.7645 134.217 28.4087 134.833C24.2112 135.597 19.8823 135.254 15.8641 133.839C14.7902 133.457 13.7426 133.008 12.728 132.493C10.6541 131.372 8.74257 129.983 7.04427 128.364C6.19574 127.509 5.40901 126.598 4.68977 125.636C3.18849 123.665 2.02488 121.467 1.24482 119.129C0.449599 116.719 0.0299132 114.206 0 111.674C0.0353967 109.145 0.454961 106.636 1.24482 104.229C2.029 101.895 3.19232 99.701 4.68977 97.7314C5.41138 96.7683 6.19796 95.8537 7.04427 94.994C7.90425 94.1828 8.81643 93.4266 9.77515 92.7302C12.4219 90.8138 15.4419 89.4524 18.6475 88.7306C21.8531 88.0087 25.1757 87.9418 28.4087 88.5341C31.7481 89.1639 34.9128 90.4836 37.6928 92.4057C40.4728 94.3278 42.8046 96.8083 44.5333 99.6826C45.7177 101.631 46.593 103.746 47.1291 105.953C47.3408 106.753 47.4955 107.566 47.5923 108.387C47.5923 108.738 47.6985 109.069 47.7178 109.335V110.149C47.7178 110.623 47.7178 110.992 47.7178 111.267C47.7628 111.403 47.7951 111.542 47.8142 111.684Z" fill="#82AAE3"/>
<path d="M85.7665 47.7373C85.4191 47.6047 71.9578 44.1379 72.7683 57.5029C73.5789 70.8678 87.0788 67.3064 87.0885 66.918C87.0981 66.5297 85.7665 47.7373 85.7665 47.7373Z" fill="#B78876"/>
<path d="M82.6207 62.1063C82.5531 62.0589 82.3891 62.2768 82.0031 62.4851C81.4518 62.7558 80.8143 62.8034 80.2276 62.6178C78.7608 62.1915 77.4098 60.0224 77.1975 57.6166C77.0922 56.4912 77.2371 55.3569 77.6221 54.2919C77.7239 53.8659 77.9301 53.4707 78.2226 53.1406C78.5152 52.8105 78.8854 52.5554 79.3012 52.3975C79.5696 52.3106 79.8605 52.3189 80.1233 52.421C80.3861 52.5231 80.604 52.7126 80.739 52.9563C80.9416 53.3163 80.8741 53.591 80.9416 53.6099C81.0092 53.6289 81.2215 53.3636 81.0767 52.8237C80.9837 52.4955 80.7752 52.2102 80.4881 52.0186C80.2952 51.8898 80.0781 51.8 79.8494 51.7545C79.6208 51.7089 79.3852 51.7086 79.1564 51.7534C78.605 51.8949 78.0998 52.173 77.6892 52.5611C77.2786 52.9492 76.9764 53.4343 76.8116 53.9699C76.2935 55.1641 76.0879 56.4665 76.2133 57.7586C76.4642 60.4487 78.0274 62.883 80.0249 63.3281C80.3975 63.4112 80.7844 63.4109 81.1569 63.3273C81.5294 63.2437 81.878 63.0789 82.1768 62.8451C82.611 62.4283 82.6689 62.1252 82.6207 62.1063Z" fill="#AA6550"/>
<path d="M119.753 0.00816345C126.672 0.00816345 133.716 0.00815848 142.372 4.45051C147.833 7.2921 151.23 11.6776 154.077 17.0388C156.347 21.3974 157.456 26.2495 157.3 31.1425C157.049 35.7648 157.029 38.9948 155.148 43.2382" fill="#263238"/>
<path d="M116.983 1.05939C121.846 0.719268 126.73 1.33446 131.348 2.86899C135.965 4.40352 140.225 6.82657 143.878 9.9964C147.53 13.1662 150.502 17.0192 152.62 21.3299C154.737 25.6406 155.957 30.3225 156.209 35.1017C157.097 51.8386 157.879 69.9395 157.695 79.0516C157.29 98.6207 137.325 101.51 137.325 101.51C137.325 101.51 137.769 107.306 138.29 114.505C138.522 117.944 138.049 121.394 136.9 124.65C135.751 127.907 133.948 130.904 131.598 133.465C129.248 136.026 126.399 138.098 123.219 139.56C120.039 141.021 116.593 141.842 113.085 141.974C109.637 142.103 106.198 141.564 102.963 140.387C99.7278 139.211 96.7609 137.42 94.2317 135.117C91.7026 132.813 89.6608 130.043 88.2231 126.965C86.7855 123.887 85.9802 120.56 85.8533 117.176L82.8909 38.3126C82.5298 28.9659 85.8896 19.8483 92.2587 12.8911C98.6278 5.93386 107.506 1.68355 117.012 1.04045L116.983 1.05939Z" fill="#B78876"/>
<path d="M137.325 101.51C137.325 101.51 125.07 102.135 111.753 93.7711C111.753 93.7711 117.784 107.979 137.682 106.407L137.325 101.51Z" fill="#AA6550"/>
<path d="M148.567 45.985C148.582 46.7204 148.301 47.432 147.784 47.9644C147.267 48.4968 146.556 48.8067 145.807 48.8266C145.446 48.8509 145.084 48.8042 144.742 48.689C144.4 48.5739 144.084 48.3927 143.815 48.1561C143.545 47.9196 143.326 47.6325 143.171 47.3116C143.016 46.9908 142.928 46.6428 142.912 46.2881C142.911 45.5569 143.198 44.8535 143.712 44.3242C144.226 43.795 144.928 43.4806 145.672 43.4465C146.032 43.4235 146.394 43.4711 146.736 43.5868C147.077 43.7024 147.392 43.8837 147.662 44.12C147.931 44.3563 148.15 44.6429 148.305 44.9631C148.461 45.2833 148.55 45.6307 148.567 45.985V45.985Z" fill="#263238"/>
<path d="M151.336 42.0257C150.979 42.3856 148.837 40.8038 145.768 40.7848C142.7 40.7659 140.451 42.2625 140.123 41.8931C139.959 41.7226 140.326 41.069 141.31 40.3775C142.641 39.4823 144.223 39.0185 145.836 39.0515C147.428 39.0528 148.978 39.5577 150.255 40.4912C151.191 41.2016 151.51 41.8646 151.336 42.0257Z" fill="#263238"/>
<path d="M118.527 45.9849C118.543 46.7219 118.26 47.4349 117.741 47.9676C117.222 48.5003 116.509 48.8091 115.758 48.8265C115.397 48.8496 115.036 48.8019 114.694 48.6863C114.352 48.5706 114.038 48.3894 113.768 48.1531C113.499 47.9168 113.28 47.6302 113.124 47.3099C112.969 46.9897 112.88 46.6423 112.863 46.2881C112.862 45.5553 113.15 44.8505 113.666 44.321C114.182 43.7915 114.887 43.4782 115.632 43.4465C115.993 43.4247 116.354 43.4733 116.695 43.5894C117.036 43.7055 117.35 43.8868 117.619 44.1229C117.889 44.359 118.107 44.6451 118.263 44.9647C118.419 45.2843 118.509 45.6311 118.527 45.9849V45.9849Z" fill="#263238"/>
<path d="M121.219 42.3572C120.862 42.7171 118.711 41.1353 115.652 41.1164C112.593 41.0974 110.335 42.5845 109.997 42.2151C109.842 42.0541 110.2 41.3911 111.193 40.6996C112.526 39.8095 114.107 39.3463 115.719 39.3735C117.31 39.3841 118.857 39.888 120.139 40.8133C121.046 41.5332 121.393 42.1867 121.219 42.3572Z" fill="#263238"/>
<path d="M132.153 64.7111C132.153 64.5406 134.083 64.2375 137.132 63.8681C137.913 63.7923 138.657 63.6502 138.792 63.1293C138.869 62.3357 138.694 61.538 138.29 60.8465C137.576 58.9521 136.813 57.0577 136.022 54.9834C132.876 46.6291 130.609 39.7714 130.956 39.6483C131.303 39.5251 134.131 46.1934 137.267 54.5477C138.029 56.6031 138.753 58.5638 139.438 60.4487C139.923 61.3771 140.06 62.4434 139.824 63.4608C139.705 63.7303 139.526 63.9704 139.301 64.1637C139.076 64.357 138.809 64.4987 138.521 64.5785C138.089 64.6839 137.645 64.7411 137.199 64.749C134.092 64.91 132.162 64.91 132.153 64.7111Z" fill="#263238"/>
<path d="M123.12 66.7475C123.622 66.7475 123.593 69.987 126.421 72.3265C129.248 74.6661 132.799 74.3346 132.818 74.7892C132.818 74.9976 132.018 75.4239 130.522 75.4523C128.572 75.4559 126.682 74.7852 125.186 73.5579C123.751 72.3794 122.835 70.7034 122.628 68.8787C122.513 67.5527 122.889 66.7286 123.12 66.7475Z" fill="#263238"/>
<path d="M122.098 30.612C121.789 31.4266 118.74 31.0193 115.14 31.4171C111.541 31.8149 108.627 32.7527 108.154 32.0138C107.951 31.6634 108.463 30.8961 109.64 30.1194C111.211 29.1641 112.984 28.5721 114.823 28.3883C116.662 28.2045 118.519 28.4337 120.255 29.0586C121.577 29.5417 122.233 30.1858 122.098 30.612Z" fill="#263238"/>
<path d="M150.902 31.3224C150.362 32.0044 148.258 31.275 145.72 31.2277C143.182 31.1803 141.03 31.6444 140.538 30.9246C140.326 30.5741 140.664 29.8921 141.609 29.2575C142.877 28.4904 144.349 28.1113 145.838 28.1686C147.326 28.226 148.763 28.7172 149.966 29.5796C150.854 30.29 151.143 30.9909 150.902 31.3224Z" fill="#263238"/>
<path d="M83.0936 44.4411C83.0936 44.4411 83.962 48.9687 84.1936 51.0051C84.2805 51.7534 84.1936 60.0414 86.2297 60.4771C87.9956 60.837 91.4984 59.2552 93.0617 55.8264C94.6249 52.3975 97.597 44.1664 97.2689 40.425C96.8347 35.329 96.5935 30.1384 97.6356 25.1183C98.6778 20.0981 101.119 15.2106 105.22 12.0469C109.321 8.88331 115.256 7.79403 119.926 10.0862C122.821 11.507 124.954 14.0171 127.646 15.7694C130.034 17.4298 132.959 18.1744 135.868 17.8627C137.311 17.6848 138.674 17.1103 139.799 16.2054C140.924 15.3004 141.765 14.1019 142.227 12.7479C143.076 9.7642 141.513 6.49637 139.071 4.51673C136.63 2.53709 133.494 1.62778 130.387 1.02158C121.762 -0.796414 112.788 -0.179006 104.506 2.8023C96.3329 5.91858 89.0667 11.9049 85.5928 19.795C81.5593 28.9165 82.0224 34.5145 83.0936 44.4221" fill="#263238"/>
<path d="M128.659 46.1081C128.564 45.0238 128.39 43.9476 128.138 42.8876C127.365 40.0098 125.628 37.4709 123.207 35.6794C121.551 34.4499 119.624 33.6193 117.582 33.2546C115.235 32.8337 112.818 33.0332 110.576 33.8324C109.369 34.2551 108.236 34.859 107.218 35.6226C106.13 36.3902 105.178 37.3277 104.4 38.3979C102.726 40.6347 101.824 43.3375 101.824 46.1128C101.824 48.8881 102.726 51.5909 104.4 53.8277C105.184 54.8936 106.135 55.8304 107.218 56.603C108.236 57.3638 109.369 57.9645 110.576 58.3837C112.817 59.1857 115.235 59.3884 117.582 58.971C119.626 58.6048 121.553 57.7708 123.207 56.5367C125.63 54.7491 127.37 52.2137 128.148 49.338C128.394 48.2743 128.565 47.195 128.659 46.1081C128.674 46.18 128.674 46.254 128.659 46.3259V46.9605C128.664 47.3066 128.635 47.6523 128.573 47.993C128.527 48.4598 128.443 48.9223 128.322 49.3759C127.604 52.3374 125.869 54.9662 123.41 56.8209C121.589 58.1985 119.443 59.1029 117.171 59.4506C114.899 59.7983 112.574 59.578 110.412 58.81C109.158 58.383 107.979 57.7662 106.919 56.9819C105.806 56.1916 104.829 55.2324 104.024 54.1403C102.281 51.8224 101.341 49.0173 101.341 46.1365C101.341 43.2556 102.281 40.4506 104.024 38.1327C105.642 35.9694 107.874 34.3222 110.441 33.3967C112.757 32.585 115.251 32.3921 117.668 32.8379C119.777 33.2309 121.76 34.1072 123.458 35.3953C125.916 37.2476 127.65 39.8727 128.37 42.8308C128.491 43.2876 128.575 43.7532 128.621 44.2231C128.683 44.5606 128.712 44.9032 128.708 45.2461V45.8807C128.679 46.0418 128.669 46.1081 128.659 46.1081Z" fill="#263238"/>
<path d="M163.755 46.1081C163.653 45.0246 163.479 43.9488 163.234 42.8876C162.459 40.0085 160.718 37.4694 158.294 35.6794C156.639 34.4484 154.711 33.6176 152.668 33.2546C150.325 32.8336 147.91 33.0331 145.672 33.8324C143.201 34.7258 141.053 36.3137 139.496 38.3979C137.817 40.6324 136.911 43.3361 136.911 46.1128C136.911 48.8895 137.817 51.5932 139.496 53.8277C140.276 54.8932 141.224 55.8301 142.304 56.603C143.325 57.3658 144.461 57.9667 145.672 58.3837C147.909 59.1858 150.324 59.3885 152.668 58.971C154.712 58.6048 156.639 57.7708 158.294 56.5367C160.717 54.7491 162.457 52.2137 163.234 49.338C163.48 48.2737 163.654 47.1948 163.755 46.1081C163.76 46.1806 163.76 46.2534 163.755 46.3259C163.755 46.4964 163.755 46.7048 163.755 46.9605C163.759 47.3062 163.733 47.6516 163.678 47.993C163.629 48.46 163.542 48.9224 163.418 49.3759C162.707 52.3405 160.971 54.9715 158.506 56.8209C156.808 58.1071 154.824 58.9803 152.716 59.3688C150.296 59.8241 147.796 59.6311 145.479 58.81C142.908 57.8966 140.676 56.2467 139.071 54.074C137.323 51.7585 136.379 48.9525 136.379 46.0702C136.379 43.1879 137.323 40.3819 139.071 38.0664C139.875 36.9733 140.853 36.0139 141.966 35.2248C143.029 34.4411 144.207 33.8214 145.46 33.3872C147.779 32.5752 150.277 32.3823 152.697 32.8284C154.805 33.22 156.79 34.0964 158.487 35.3858C160.949 37.2333 162.685 39.8605 163.398 42.8213C163.523 43.2779 163.61 43.7435 163.659 44.2137C163.714 44.5519 163.74 44.8941 163.736 45.2366C163.736 45.4924 163.736 45.7008 163.736 45.8713C163.748 45.9497 163.754 46.0288 163.755 46.1081Z" fill="#263238"/>
<path d="M136.978 44.6873C136.978 44.763 136.485 44.5168 135.723 44.2705C134.727 43.9415 133.675 43.8064 132.625 43.8727C131.588 43.9483 130.574 44.2116 129.634 44.6494C128.91 44.9998 128.505 45.3029 128.457 45.2366C128.409 45.1703 128.746 44.7915 129.422 44.3463C130.373 43.7837 131.447 43.4524 132.555 43.3799C133.663 43.3074 134.772 43.4958 135.791 43.9295C136.63 44.2894 137.016 44.6494 136.978 44.6873Z" fill="#263238"/>
<path d="M142.41 11.668C142.613 10.6545 142.265 10.0862 142.854 9.66943C143.443 9.25266 144.784 10.4461 145.228 10.9387C145.382 11.0997 145.846 10.4745 146.029 10.3609C146.23 9.95475 146.348 9.51389 146.376 9.06322C146.289 8.35283 145.16 8.11603 144.63 7.68032C144.082 7.20797 143.441 6.85023 142.748 6.62893C142.465 6.4917 142.151 6.42914 141.836 6.44741C141.522 6.46568 141.217 6.56416 140.953 6.73312C140.796 6.91496 140.679 7.12656 140.61 7.35472C140.54 7.58287 140.519 7.82269 140.548 8.0592C140.545 8.53306 140.637 9.00288 140.818 9.4421C141 9.88399 141.344 10.2425 141.783 10.4461" fill="#263238"/>
<path d="M82.3505 34.0408C82.3505 34.0408 92.1257 37.5549 97.2111 39.6766L96.9216 34.7702L82.7076 29.248C82.7076 29.248 82.3409 32.8947 82.3505 34.0408Z" fill="#EBEBEB"/>
<path d="M83.2672 26.4159C85.6293 27.1339 87.9406 28.0041 90.186 29.0207C92.506 29.8884 94.7628 30.9106 96.9408 32.0801C94.5787 31.362 92.2675 30.4919 90.022 29.4753C87.7021 28.6076 85.4452 27.5854 83.2672 26.4159V26.4159Z" fill="#EBEBEB"/>
<path d="M86.2104 129.774L85.4577 106.558C85.4577 106.558 90.1571 127.804 114.774 127.529C138.29 127.264 137.865 108.813 137.865 108.813L138.705 118.171V155.973L123.362 217.645L103.763 220.051L82.1093 135.751L86.2104 129.774Z" fill="#82AAE3"/>
<path d="M135.675 122.348C135.602 122.523 135.508 122.688 135.395 122.841C135.1 123.307 134.778 123.756 134.43 124.186C133.192 125.784 131.715 127.189 130.049 128.353C127.576 130.09 124.804 131.374 121.866 132.142C118.267 133.09 114.515 133.344 110.817 132.89C107.135 132.393 103.553 131.335 100.202 129.755C97.483 128.478 94.8974 126.942 92.4827 125.171C90.849 123.994 89.2834 122.729 87.793 121.382C87.2622 120.908 86.8762 120.51 86.606 120.245C86.4621 120.121 86.3327 119.981 86.22 119.828C86.3837 119.929 86.5358 120.046 86.6736 120.179L87.928 121.24C89.0088 122.187 90.6106 123.447 92.695 124.915C95.1217 126.631 97.7061 128.122 100.415 129.367C103.726 130.9 107.257 131.929 110.885 132.417C114.515 132.864 118.199 132.629 121.741 131.725C124.635 130.988 127.377 129.763 129.846 128.107C131.504 126.983 132.995 125.637 134.276 124.11C135.202 122.973 135.636 122.32 135.675 122.348Z" fill="#263238"/>
<path d="M118.595 320.558L118.238 210.968L86.5289 131.015L85.4674 106.947L66.168 121.287C66.168 121.287 38.0584 216.263 37.5856 212.985C37.1128 209.708 37.5856 320.558 37.5856 320.558H118.595Z" fill="#EBEBEB"/>
<path d="M117.832 320.255C117.697 320.255 117.582 295.562 117.582 265.1C117.582 234.638 117.697 209.945 117.832 209.945C117.968 209.945 118.083 234.638 118.083 265.1C118.083 295.562 117.968 320.255 117.832 320.255Z" fill="#263238"/>
<path d="M66.4285 136.897L70.3463 139.814L67.5961 157.546L113.876 205.133L71.842 150.944L75.4221 136.897H66.4285Z" fill="#E0E0E0"/>
<path d="M120.332 264.418L49.3003 243.977L46.9458 191.02L66.4285 121.249C66.4285 121.249 19.9942 143.991 16.8291 158.483C13.664 172.976 6.05037 208.136 5.24944 233.568C4.52571 256.3 4.41956 271.456 9.7076 278.759C24.8576 299.54 124.674 303.253 164.547 278.759" fill="#EBEBEB"/>
<path d="M114.774 206.279C114.774 206.279 114.687 206.203 114.542 206.023C114.397 205.843 114.166 205.569 113.905 205.247L111.493 202.216C109.389 199.545 106.388 195.718 102.692 191.001L73.8105 153.899L71.6393 151.058L71.5622 150.963V150.849C72.7973 145.999 74.0035 141.292 75.1518 136.802L75.3834 137.105H66.3899H66.1583V136.878C66.1583 131.195 66.1583 125.89 66.1583 121.23V121.136L66.2355 121.079L80.1987 110.66L84.0585 107.818L85.0235 107.089C85.1331 107 85.2529 106.923 85.3805 106.861L85.0621 107.136L84.0971 107.903L80.3241 110.802L66.4671 121.353L66.5443 121.202C66.5443 125.862 66.5443 131.119 66.5443 136.85L66.3127 136.632H75.3062H75.6922L75.615 136.935L72.0446 150.982L71.9964 150.773L74.1772 153.568L102.933 190.764L111.618 202.064C112.583 203.39 113.403 204.423 113.953 205.152C114.204 205.493 114.397 205.768 114.552 205.967L114.774 206.279Z" fill="#263238"/>
<path d="M146.434 117.119C140.77 107.401 137.827 108.405 137.827 108.405L138.126 111.872V119.156L135.434 150.413L118.228 218.318L118.585 320.558H183.634L191.73 195.756L190.996 141.983L146.434 117.119Z" fill="#EBEBEB"/>
<path d="M191.006 141.983C191.006 141.983 207.845 154.183 209.341 173.819C210.527 189.76 213.2 233.416 213.731 242.917C214.503 257.712 202.759 292.37 172.189 282.557C153.855 276.665 86.1332 254.075 86.1332 254.075L90.6396 225.839L171.022 230.575L172.623 164.763L191.006 141.983Z" fill="#EBEBEB"/>
<path d="M89.6843 229.088C89.6843 229.088 66.9303 226.672 61.7002 227.922C56.6341 229.125 49.4258 235.206 49.4258 235.206L49.5319 244.025L86.1332 254.075L89.6843 229.088Z" fill="#B78876"/>
<path d="M118.238 208.107C118.263 208.003 118.298 207.901 118.344 207.804C118.421 207.586 118.537 207.293 118.682 206.933C119 206.137 119.463 205.038 120.042 203.599L125.137 191.361L132.741 173.231C133.465 171.536 134.179 169.765 135.076 168.031C135.974 166.298 136.949 164.565 137.971 162.831C140.189 159.297 142.599 155.882 145.189 152.601C146.502 150.944 147.824 149.324 149.194 147.771V148.026L146.357 140.951L146.26 140.714L146.502 140.629L158.342 136.698L158.216 137.02C152.716 128.003 148.075 120.387 144.774 114.988C143.153 112.317 141.764 110.176 140.287 109.305C139.731 108.976 139.125 108.736 138.492 108.595C138.268 108.553 138.045 108.499 137.827 108.434C138.053 108.449 138.279 108.477 138.502 108.519C139.158 108.635 139.788 108.862 140.364 109.191C141.26 109.763 142.033 110.499 142.642 111.36C143.494 112.479 144.283 113.643 145.006 114.846L158.612 136.802L158.757 137.039L158.487 137.124L146.646 141.112L146.791 140.799L149.638 147.875L149.696 148.008L149.59 148.121C148.239 149.656 146.917 151.275 145.614 152.933C143.033 156.19 140.63 159.58 138.415 163.087C137.383 164.811 136.37 166.506 135.52 168.24C134.671 169.973 133.918 171.697 133.195 173.402C130.3 180.203 127.675 186.331 125.475 191.493C123.275 196.656 121.48 200.766 120.235 203.665C119.618 205.076 119.126 206.184 118.788 206.971C118.624 207.33 118.498 207.605 118.392 207.823C118.354 207.924 118.302 208.02 118.238 208.107V208.107Z" fill="#263238"/>
<path d="M200.241 277.063C200.159 277.171 200.065 277.269 199.961 277.357L199.093 278.181C197.95 279.207 196.713 280.126 195.397 280.928C193.299 282.181 191.022 283.119 188.642 283.712C185.488 284.479 182.22 284.684 178.992 284.319C177.11 284.103 175.253 283.716 173.444 283.163C171.514 282.576 169.661 281.846 167.654 281.164C163.688 279.744 159.423 278.323 154.945 276.731C145.971 273.644 136.08 270.347 125.658 266.985C104.815 260.269 85.8051 254.605 72.0254 250.56L55.698 245.824L51.2592 244.527L50.1109 244.186C49.978 244.15 49.8488 244.103 49.7249 244.044L50.1302 244.129L51.2881 244.432L55.7559 245.635C59.6158 246.696 65.2223 248.259 72.1604 250.229C85.9595 254.179 104.969 259.796 125.842 266.521C136.273 269.874 146.164 273.151 155.129 276.296C159.606 277.859 163.862 279.346 167.828 280.776C169.815 281.477 171.687 282.216 173.617 282.803C175.4 283.358 177.232 283.748 179.089 283.968C182.286 284.353 185.527 284.176 188.661 283.447C191.032 282.877 193.307 281.974 195.416 280.767C196.732 279.984 197.978 279.093 199.141 278.105L200.038 277.319C200.099 277.229 200.167 277.143 200.241 277.063V277.063Z" fill="#263238"/>
<path d="M49.4933 244.186C49.4933 244.29 48.2099 244.015 46.1738 244.101C44.9837 244.149 43.8041 244.339 42.6613 244.669C41.2664 245.08 39.9353 245.676 38.7049 246.44C36.4825 247.879 34.603 249.773 33.1949 251.991C32.1238 253.696 31.651 254.832 31.5641 254.832C31.6157 254.541 31.7065 254.257 31.8343 253.989C32.1262 253.236 32.4813 252.507 32.8958 251.811C34.2482 249.478 36.1468 247.494 38.4347 246.023C39.7065 245.235 41.0879 244.632 42.5358 244.233C43.7189 243.919 44.9385 243.757 46.1641 243.75C46.9866 243.739 47.8081 243.812 48.6151 243.968C48.9167 244.001 49.2122 244.074 49.4933 244.186V244.186Z" fill="#263238"/>
<path d="M27.1157 237.271C27.1157 237.271 27.1157 237.177 27.2025 237.016C27.3179 236.79 27.4676 236.582 27.6464 236.4C28.3354 235.738 29.2205 235.307 30.1746 235.169C31.5549 234.945 32.963 234.945 34.3433 235.169C36.032 235.387 37.6917 235.784 39.2936 236.353C42.2233 237.363 44.8985 238.978 47.1388 241.089C47.8065 241.734 48.4167 242.434 48.9626 243.182C49.1745 243.447 49.3527 243.736 49.4933 244.044C49.4065 244.11 48.6152 242.898 46.8975 241.344C44.6327 239.356 41.9894 237.827 39.1199 236.845C37.5543 236.294 35.9386 235.892 34.295 235.642C32.9575 235.405 31.5913 235.367 30.2422 235.529C29.3444 235.629 28.4961 235.985 27.8008 236.552C27.3183 236.959 27.1543 237.29 27.1157 237.271Z" fill="#263238"/>
<path d="M53.633 176.48C53.4759 176.015 53.366 175.536 53.3049 175.05C53.1602 174.595 52.9575 174.055 52.7356 173.43C52.5137 172.805 52.1277 172.123 51.6838 171.403C50.6453 169.708 49.4328 168.121 48.0651 166.667C46.3729 164.902 44.5151 163.298 42.5166 161.875C38.8885 159.271 34.7631 157.413 30.3869 156.409C29.0553 156.132 27.7032 155.961 26.3437 155.898C25.8428 155.9 25.3425 155.862 24.848 155.784C25.3464 155.715 25.8502 155.689 26.3533 155.708C27.7292 155.693 29.1031 155.814 30.4544 156.068C34.9187 156.982 39.1309 158.827 42.8061 161.477C44.8369 162.91 46.7123 164.545 48.4029 166.355C49.7788 167.843 50.9827 169.475 51.9926 171.223C52.4268 171.972 52.7067 172.701 52.9575 173.317C53.2084 173.932 53.3435 174.529 53.4593 174.993C53.555 175.484 53.6131 175.981 53.633 176.48Z" fill="#263238"/>
<path d="M188.488 257.428C188.476 257.314 188.476 257.2 188.488 257.087V256.092C188.488 255.221 188.42 253.942 188.295 252.303C187.944 247.649 186.971 243.059 185.4 238.654C184.927 237.195 184.279 235.796 183.47 234.487C182.567 233.092 181.255 231.999 179.706 231.351C176.474 229.987 172.585 230.167 168.628 229.95L142.729 228.879C121.326 227.932 102.287 227.174 90.3212 226.549L90.4852 226.417C89.7615 230.736 89.1825 234.155 88.7869 236.533C88.5842 237.679 88.4298 238.569 88.314 239.204C88.2658 239.488 88.2175 239.715 88.1886 239.895L88.1307 240.122C88.1221 240.044 88.1221 239.964 88.1307 239.886L88.2272 239.194C88.314 238.56 88.4491 237.66 88.6132 236.504C88.9799 234.127 89.5009 230.698 90.1668 226.369V226.237H90.3115L142.719 228.377L168.619 229.523C170.607 229.618 172.546 229.665 174.409 229.817C176.265 229.918 178.091 230.322 179.812 231.01C181.434 231.679 182.812 232.811 183.769 234.259C184.585 235.598 185.234 237.03 185.699 238.522C187.249 242.955 188.171 247.576 188.439 252.256C188.545 253.904 188.545 255.192 188.536 256.045C188.536 256.462 188.536 256.793 188.536 257.039C188.497 257.305 188.488 257.428 188.488 257.428Z" fill="#263238"/>
<path d="M173.154 195.652C173.289 195.652 173.405 203.295 173.405 212.701C173.405 222.107 173.289 229.751 173.154 229.751C173.019 229.751 172.903 222.107 172.903 212.701C172.903 203.295 173.019 195.652 173.154 195.652Z" fill="#263238"/>
<path d="M17.3888 156.75C17.3888 156.75 17.3309 156.968 17.1958 157.375C17.0607 157.783 16.8194 158.398 16.6168 159.27C16.144 160.908 15.5457 163.352 14.8799 166.544C13.5386 172.928 11.8885 182.268 10.055 193.956C9.13829 199.81 8.12507 206.27 7.1601 213.194C6.66797 216.67 6.35918 220.288 6.10829 224.039C5.8574 227.79 5.65475 231.617 5.50035 235.633C5.21086 243.599 5.03715 252.01 5.26874 260.771C5.34594 262.959 5.42314 265.176 5.60649 267.402C5.66438 268.519 5.85737 269.618 5.99247 270.726C6.19856 271.834 6.47247 272.928 6.8127 274.004C7.49939 276.177 8.58515 278.209 10.0164 279.999C11.4516 281.82 13.3388 283.248 15.4974 284.148C20.0911 286.36 24.8812 288.154 29.8079 289.509C34.7968 290.977 39.9498 292.161 45.1799 293.213C56.56 295.519 68.1144 296.9 79.7258 297.343C85.2266 297.481 90.7309 297.342 96.2171 296.926C101.592 296.556 106.832 295.979 111.898 295.268C121.451 293.939 130.866 291.791 140.036 288.846C147.888 286.301 155.502 283.094 162.79 279.261V279.573L131.66 268.709L123.256 265.763L121.084 264.986C120.592 264.806 120.351 264.702 120.351 264.702L121.094 264.939L123.285 265.668L131.718 268.51L162.983 279.213L163.36 279.336L163.012 279.526C155.71 283.389 148.081 286.625 140.21 289.197C131.02 292.168 121.582 294.339 112.004 295.685C106.928 296.433 101.679 296.992 96.2944 297.362C90.7924 297.784 85.2719 297.93 79.7548 297.797C68.1142 297.361 56.5304 295.98 45.122 293.667C39.8726 292.607 34.71 291.423 29.6825 289.954C24.7271 288.581 19.9083 286.771 15.2851 284.546C13.0363 283.618 11.0689 282.137 9.57253 280.246C8.10904 278.406 7.0004 276.32 6.30127 274.089C5.95123 272.996 5.67085 271.882 5.46175 270.755C5.317 269.618 5.13366 268.5 5.07576 267.383C4.89242 265.147 4.81523 262.921 4.74768 260.752C4.51609 251.962 4.74768 243.551 5.01787 235.576C5.17226 231.598 5.38133 227.73 5.64509 223.973C5.90563 220.184 6.22407 216.585 6.72585 213.108C7.69082 206.146 8.71369 199.715 9.62076 193.871C11.5507 182.182 13.2298 172.853 14.629 166.478C15.3237 163.286 15.9413 160.842 16.4431 159.203C16.6554 158.379 16.9256 157.773 17.0607 157.366C17.1958 156.959 17.3888 156.75 17.3888 156.75Z" fill="#263238"/>
<path d="M49.3872 237.641C61.2659 224.731 60.7449 201.78 53.9225 185.498C53.2953 203.134 51.1724 218.782 49.5512 235.926" fill="#E0E0E0"/>
<path d="M53.9515 188.794C53.9725 188.983 53.9725 189.173 53.9515 189.362C53.9515 189.788 53.8936 190.309 53.8453 190.972C53.7295 192.441 53.5751 194.449 53.3725 196.892C52.9479 201.95 52.4075 208.818 51.7417 216.414L50.1785 235.945C49.9951 238.389 49.8407 240.397 49.7249 241.865L49.5802 243.466C49.5686 243.654 49.5428 243.841 49.503 244.025C49.4748 243.84 49.4748 243.651 49.503 243.466C49.503 243.04 49.503 242.519 49.5512 241.846C49.5995 240.444 49.7056 238.417 49.8407 235.917C50.1399 230.916 50.6223 224.001 51.2592 216.376C51.8961 208.751 52.533 201.856 53.0444 196.864C53.305 194.42 53.5172 192.422 53.6716 190.953C53.7585 190.3 53.8261 189.769 53.8743 189.353C53.8741 189.164 53.9001 188.976 53.9515 188.794V188.794Z" fill="#263238"/>
<path d="M83.2286 165.474C83.4831 168.805 83.5668 172.146 83.4795 175.486C83.5665 178.825 83.4828 182.167 83.2286 185.498C83.0935 185.498 82.9777 181.008 82.9777 175.486C82.9777 169.964 83.0935 165.474 83.2286 165.474Z" fill="#263238"/>
<path d="M75.4896 198.73C75.6918 200.666 76.4515 202.506 77.6801 204.034C78.7994 205.465 81.0671 206.876 82.8909 206.753C84.265 206.821 85.6338 206.539 86.8635 205.933C88.0932 205.327 89.1416 204.418 89.9062 203.295C92.1257 199.829 92.6757 192.602 90.8712 188.33C89.6457 185.393 86.8955 182.647 83.6629 182.58C79.417 182.486 76.7537 185.498 75.8466 188.548" fill="#E0E0E0"/>
<path d="M75.8659 188.548C76.0062 187.827 76.2705 187.135 76.6475 186.502C77.0676 185.74 77.6046 185.047 78.2398 184.446C79.0903 183.646 80.1221 183.055 81.2505 182.722C81.9047 182.526 82.5832 182.417 83.2672 182.4C84.0154 182.36 84.7646 182.457 85.477 182.684C87.0311 183.224 88.3967 184.187 89.4141 185.46C90.5622 186.834 91.3595 188.458 91.7397 190.196C92.1402 192.04 92.2831 193.93 92.1643 195.813C91.9713 198.777 91.373 201.733 89.7036 203.987C88.8735 205.046 87.7663 205.864 86.4999 206.355C85.3484 206.808 84.1107 207.012 82.8716 206.952V206.952C81.9667 206.959 81.0743 206.744 80.2758 206.326C79.5733 205.966 78.924 205.514 78.3459 204.981C77.4374 204.093 76.7161 203.037 76.2229 201.875C75.8924 201.141 75.6652 200.367 75.5475 199.573C75.5148 199.366 75.4955 199.157 75.4896 198.948C75.477 198.876 75.477 198.802 75.4896 198.73C75.686 199.781 76.0099 200.805 76.4546 201.78C76.9701 202.893 77.6972 203.899 78.5968 204.745C79.1793 205.245 79.8286 205.666 80.5267 205.995C81.272 206.373 82.1005 206.564 82.9392 206.554V206.554C84.1617 206.613 85.3811 206.387 86.4969 205.893C87.6126 205.399 88.5927 204.651 89.3562 203.712C90.9098 201.6 91.5081 198.692 91.6914 195.794C91.9037 192.005 91.2572 188.273 89.086 185.753C88.1152 184.545 86.8178 183.629 85.3419 183.111C84.6734 182.893 83.971 182.794 83.2672 182.817C82.6143 182.824 81.9653 182.916 81.3373 183.092C80.2586 183.397 79.2674 183.945 78.4424 184.692C77.8115 185.259 77.2685 185.913 76.8309 186.634C76.4728 187.254 76.1507 187.892 75.8659 188.548Z" fill="#263238"/>
<path d="M73.2316 198.919C73.4353 200.856 74.1949 202.695 75.422 204.224C76.5317 205.654 78.8091 207.065 80.6329 206.942C82.0069 207.01 83.3753 206.727 84.6048 206.121C85.8343 205.515 86.8829 204.607 87.6482 203.485C89.8676 200.009 90.4177 192.791 88.6132 188.519C87.3877 185.573 84.6375 182.836 81.4048 182.77C79.6091 182.755 77.8606 183.335 76.4423 184.416C75.0239 185.497 74.0185 187.016 73.5886 188.728" fill="#E0E0E0"/>
<path d="M73.6079 188.728C73.7492 188.01 74.0135 187.322 74.3895 186.691C74.8095 185.93 75.3466 185.237 75.9817 184.636C77.3347 183.356 79.1305 182.625 81.0092 182.59C81.7573 182.55 82.5064 182.647 83.219 182.874C84.7731 183.414 86.1386 184.376 87.156 185.649C88.3049 187.022 89.0993 188.647 89.472 190.385C89.8806 192.229 90.0267 194.119 89.9062 196.002C89.7132 198.967 89.1149 201.913 87.4455 204.176C86.6155 205.236 85.5082 206.054 84.2418 206.544C83.0903 206.998 81.8527 207.201 80.6136 207.141V207.141C79.7078 207.146 78.8153 206.928 78.0178 206.507C77.3137 206.153 76.6639 205.703 76.0878 205.171C75.1737 204.283 74.4516 203.223 73.9649 202.055C73.6346 201.324 73.4074 200.553 73.2894 199.762C73.2894 199.488 73.2315 199.279 73.2219 199.137C73.2115 199.065 73.2115 198.992 73.2219 198.919C73.4192 199.967 73.7432 200.988 74.1869 201.96C74.696 203.079 75.4238 204.09 76.3291 204.934C76.9116 205.435 77.5609 205.856 78.259 206.184C79.0059 206.558 79.8333 206.749 80.6715 206.743V206.743C81.8924 206.801 83.1099 206.574 84.2239 206.08C85.3378 205.586 86.3163 204.839 87.0788 203.902C88.6421 201.78 89.2404 198.882 89.4237 195.983C89.636 192.194 88.9895 188.462 86.8183 185.943C85.8629 184.725 84.5745 183.798 83.1032 183.272C82.4379 183.055 81.7388 182.955 81.0381 182.978C79.2471 183.005 77.5292 183.68 76.2133 184.873C75.5824 185.439 75.0394 186.093 74.6018 186.814C74.23 187.431 73.898 188.07 73.6079 188.728Z" fill="#263238"/>
<path d="M77.3327 187.667C76.262 187.533 75.1762 187.747 74.2408 188.275C73.3053 188.804 72.5714 189.618 72.1508 190.593C71.3495 192.58 71.3495 194.792 72.1508 196.779C72.4826 197.808 73.0318 198.757 73.7623 199.563C74.5065 200.376 75.5461 200.869 76.6572 200.937C77.4613 200.892 78.2429 200.659 78.9363 200.257C79.6298 199.855 80.2149 199.296 80.6425 198.626C81.3892 197.583 81.8974 196.393 82.1323 195.139C82.3671 193.885 82.323 192.596 82.0031 191.361C81.5592 189.713 80.3241 188.036 78.5968 187.989" fill="#E0E0E0"/>
<path d="M78.5871 187.989C78.5871 187.989 78.7222 187.989 78.9731 187.989C79.3452 188.031 79.7038 188.15 80.0249 188.339C80.5939 188.711 81.0815 189.191 81.4593 189.751C81.8371 190.31 82.0974 190.938 82.2251 191.598C82.6959 193.541 82.4851 195.583 81.6268 197.394C81.1453 198.48 80.4038 199.435 79.4653 200.179C78.9606 200.606 78.3593 200.909 77.7115 201.062C77.0637 201.215 76.3879 201.215 75.7405 201.06C74.4763 200.665 73.4134 199.811 72.7684 198.673C72.1764 197.655 71.7591 196.547 71.5332 195.396C71.2919 194.434 71.253 193.434 71.4189 192.457C71.5848 191.479 71.9521 190.546 72.4982 189.713C72.8893 189.162 73.3873 188.693 73.9636 188.333C74.5399 187.972 75.1831 187.726 75.8563 187.61C76.2242 187.556 76.5981 187.556 76.966 187.61C77.2072 187.657 77.3327 187.695 77.3327 187.714C76.8518 187.698 76.3703 187.726 75.8949 187.799C74.6228 188.089 73.5113 188.844 72.7877 189.912C72.2878 190.716 71.9592 191.612 71.8215 192.545C71.6839 193.478 71.7401 194.428 71.9868 195.339C72.212 196.436 72.6195 197.488 73.193 198.455C73.7753 199.483 74.7344 200.255 75.8756 200.615C76.4474 200.752 77.0444 200.753 77.6168 200.618C78.1891 200.483 78.7203 200.215 79.1661 199.838C80.0418 199.138 80.7417 198.25 81.2119 197.243C82.0471 195.521 82.2811 193.577 81.8777 191.711C81.6745 190.449 80.9832 189.313 79.9478 188.538C79.5328 188.274 79.0714 188.088 78.5871 187.989V187.989Z" fill="#263238"/>
<path d="M82.1961 203.239C82.1189 203.239 82.0128 202.935 81.6847 202.557C81.2426 202.069 80.6714 201.712 80.0346 201.524C79.3749 201.338 78.6942 201.233 78.0081 201.212C77.4774 201.212 77.13 201.126 77.13 201.06C77.13 200.994 77.4581 200.918 78.0081 200.861C78.7407 200.784 79.4815 200.849 80.189 201.05C80.9261 201.259 81.5607 201.723 81.9742 202.358C82.2733 202.85 82.254 203.229 82.1961 203.239Z" fill="#263238"/>
<path d="M82.9585 186.379C82.9585 186.379 82.8041 186.71 82.3602 187.06C81.7634 187.508 81.0646 187.807 80.3241 187.932C79.5854 188.064 78.8254 188.025 78.1047 187.818C77.5643 187.638 77.2748 187.43 77.3038 187.373C78.2615 187.52 79.2344 187.545 80.1987 187.449C81.16 187.205 82.087 186.846 82.9585 186.379V186.379Z" fill="#263238"/>
<path d="M149.262 118.531C149.262 118.531 149.377 118.531 149.58 118.644C149.875 118.773 150.161 118.919 150.439 119.08C151.473 119.655 152.444 120.334 153.334 121.107C156.301 123.673 158.457 127.019 159.548 130.75C160.69 134.414 161.481 138.175 161.912 141.983C162.086 143.442 162.173 144.626 162.231 145.441C162.279 145.866 162.279 146.294 162.231 146.719C162.122 146.306 162.051 145.885 162.018 145.46C161.893 144.56 161.729 143.404 161.546 142.031C161.012 138.259 160.176 134.535 159.046 130.892C157.973 127.245 155.912 123.951 153.083 121.363C151.882 120.328 150.605 119.381 149.262 118.531Z" fill="#263238"/>
<path d="M137.238 222.789C140.036 222.685 142.275 219.947 145.074 220.099C145.58 220.141 146.074 220.281 146.526 220.51C146.977 220.74 147.379 221.054 147.707 221.436C148.035 221.818 148.283 222.259 148.437 222.735C148.591 223.211 148.648 223.712 148.605 224.21C148.562 224.707 148.42 225.191 148.186 225.635C147.952 226.078 147.632 226.472 147.243 226.794C146.854 227.116 146.404 227.36 145.919 227.511C145.435 227.662 144.924 227.719 144.417 227.676C141.474 227.345 139.757 223.963 136.881 223.319" fill="#263238"/>
<path d="M160.957 225.128C160.081 225.127 159.207 225.057 158.342 224.92L158.496 223.973C161.951 224.513 164.855 223.973 167.123 222.315C170.018 220.26 171.823 216.575 172.595 211.366V211.167C172.913 209.102 173.347 168.59 173.347 160.899C173.347 148.879 162.607 147.24 162.144 147.174C161.681 147.108 151.944 145.498 146.762 158.616C141.339 172.36 132.664 198.844 132.095 201.95C132.018 202.329 131.911 202.803 131.796 203.343C130.889 207.321 129.016 215.59 134.633 220.345C140.895 225.659 145.836 223.603 146.039 223.518L146.434 224.38C146.203 224.475 140.76 226.795 134.005 221.065C127.945 215.931 129.904 207.293 130.85 203.134C130.975 202.604 131.072 202.187 131.139 201.78C131.718 198.654 140.422 172.057 145.865 158.275C151.307 144.493 162.192 146.217 162.269 146.246C162.347 146.274 174.274 148.045 174.274 160.899C174.274 167.236 173.849 209.111 173.511 211.309V211.498C172.701 216.973 170.732 220.866 167.654 223.082C165.705 224.456 163.356 225.174 160.957 225.128Z" fill="#263238"/>
<path d="M173.859 168.656C173.431 166.989 172.755 165.393 171.851 163.92C170.825 162.366 169.536 160.995 168.04 159.866C166.198 158.501 164.084 157.533 161.835 157.025C157.705 156.133 153.387 156.685 149.628 158.588C148.093 159.411 146.664 160.413 145.373 161.571C145.434 161.468 145.508 161.372 145.595 161.287C145.815 161.016 146.057 160.763 146.318 160.529C147.256 159.646 148.311 158.891 149.455 158.285C153.267 156.236 157.708 155.617 161.951 156.542C164.268 157.079 166.44 158.1 168.32 159.535C169.858 160.704 171.166 162.139 172.18 163.769C172.858 164.861 173.36 166.049 173.666 167.292C173.756 167.629 173.824 167.97 173.868 168.315C173.868 168.524 173.878 168.656 173.859 168.656Z" fill="#263238"/>
<path d="M198.436 244.375C198.08 243.004 197.635 241.656 197.105 240.34C195.733 237.201 193.46 234.522 190.562 232.63C188.94 231.657 187.135 231.012 185.255 230.736C183.704 230.499 182.142 230.341 180.575 230.262L177.4 230.044C177.01 230.034 176.622 229.983 176.242 229.893C176.63 229.846 177.022 229.846 177.41 229.893L180.594 229.95C182.176 229.984 183.755 230.11 185.322 230.328C187.273 230.578 189.149 231.223 190.832 232.223C193.815 234.161 196.119 236.951 197.433 240.217C197.835 241.191 198.132 242.204 198.321 243.239C198.41 243.611 198.449 243.993 198.436 244.375V244.375Z" fill="#263238"/>
<path d="M149.754 228.576C149.754 228.576 159.249 214.472 161.671 212.625C164.093 210.778 184.83 201.59 187.233 203.068C189.636 204.546 188.198 207.747 188.198 207.747C188.198 207.747 196.96 204.735 197.896 205.919C198.399 206.631 198.669 207.477 198.669 208.344C198.669 209.211 198.399 210.057 197.896 210.769C197.896 210.769 202.721 210.039 202.721 211.508C202.702 212.493 202.436 213.46 201.948 214.322C201.461 215.183 200.765 215.915 199.922 216.452C197.684 218.1 183.122 227.61 181.955 230.243L177.236 229.959L149.754 228.576Z" fill="#B78876"/>
<path d="M177.062 224.532C177.169 224.218 177.315 223.919 177.497 223.641C177.959 222.87 178.481 222.135 179.06 221.444C181 219.172 183.328 217.249 185.94 215.761C188.538 214.269 191.263 213.001 194.084 211.972C195.156 211.564 196.014 211.261 196.642 211.025C196.951 210.899 197.275 210.81 197.607 210.759C197.33 210.947 197.028 211.097 196.709 211.205L194.21 212.256C191.455 213.363 188.779 214.65 186.201 216.111C183.636 217.58 181.318 219.43 179.33 221.595C177.825 223.348 177.149 224.579 177.062 224.532Z" fill="#AA6550"/>
<path d="M165.029 224.304C165.142 223.943 165.297 223.597 165.492 223.272C165.82 222.618 166.293 221.681 166.949 220.544C167.706 219.208 168.581 217.94 169.564 216.755C170.148 216.034 170.815 215.383 171.552 214.813C172.353 214.283 173.193 213.79 174.071 213.279C177.038 211.543 180.135 210.029 183.335 208.751C184.304 208.375 185.297 208.059 186.307 207.804C186.678 207.699 187.06 207.632 187.445 207.605C187.445 207.69 185.872 208.05 183.47 209.111C180.33 210.477 177.275 212.024 174.322 213.743C173.453 214.245 172.614 214.747 171.832 215.249C171.122 215.786 170.474 216.399 169.902 217.077C168.913 218.235 168.022 219.471 167.239 220.771L165.637 223.404C165.468 223.725 165.264 224.027 165.029 224.304V224.304Z" fill="#AA6550"/>
</svg>
